<svg viewBox="0 -89 512 512" xmlns="http://www.w3.org/2000/svg" class="icon icon-anglais"><path fill="currentColor" d="M204.355 104.684V0H22.075zm0 0M163.113 115.598L0 21.918v93.68zm0 0"/><path fill="currentColor" d="M277.645 145.598V0h-43.29v145.598H0v43.289h234.355v145.597h43.29V188.887H512v-43.29zm0 0"/><path fill="currentColor" d="M348.887 218.887L512 312.567v-93.68zm0 0M307.645 229.8v104.684h182.28zm0 0M307.645 0v104.684L489.925 0zm0 0M348.887 115.598H512v-93.68zm0 0M204.355 229.8L22.075 334.485h182.28zm0 0M0 218.887v93.68l163.113-93.68zm0 0"/></svg>