<svg xmlns="http://www.w3.org/2000/svg" viewBox="0 0 458 201" class="logo-acerola-filet">
  <path fill="currentColor" class="filet" d="M11 150V11h438v139c-91.4 0-182.8 0-274.3.1-2.5 0-5.4.4-7.5 1.7-17.7 10.2-35.3 20.8-52.9 31.1-5.2 3.1-10.5 5.9-16.5 9.2V150H11zm103.1 11.9c2.4-1.3 3.9-2.1 5.3-2.9 12.6-7.4 25.2-15 37.9-22.1 3-1.7 6.8-2.7 10.2-2.8 86.5-.1 173-.1 259.4-.1h5.7V27.4H27.3v106.7h86.8v27.8z"/>
  <path fill="currentColor" class="acerola" d="M59.7 52.9h14L96 105.8H80.5l-3.8-9.4H56.4l-3.7 9.4H37.4l22.3-52.9zM72.4 85l-5.8-14.8L60.7 85h11.7zM96.1 79.6v-.1c0-15.3 11.7-27.3 27.6-27.3 10.7 0 17.6 4.5 22.3 10.9l-11 8.4c-3-3.7-6.4-6.1-11.5-6.1-7.3 0-12.5 6.3-12.5 13.9v.1c0 7.9 5.2 14 12.5 14 5.5 0 8.7-2.5 11.8-6.4l10.9 7.8c-4.9 6.8-11.6 11.8-23.2 11.8-14.9.2-26.9-11.3-26.9-27zM152.6 53.2h42.2v12.3H167v8h25.2V85H167v8.3h28.2v12.4h-42.6V53.2zM202.7 53.2h24.8c8 0 13.6 2.1 17.1 5.6 3.1 3.1 4.7 7 4.7 12.2v.1c0 8.1-4.3 13.4-10.8 16.2l12.5 18.3h-16.7l-10.6-15.9h-6.4v15.9h-14.5V53.2zm24.2 25.2c4.9 0 7.8-2.4 7.8-6.2V72c0-4.2-3.1-6.3-7.9-6.3h-9.6v12.7h9.7z"/>
  <path fill="currentColor" class="ball" d="M254.9 79.6v-.1c0-15.1 12.1-27.3 28.3-27.3s28.2 12.1 28.2 27.1v.1c0 15.1-12.1 27.3-28.3 27.3s-28.2-12-28.2-27.1z"/>
  <path fill="currentColor" class="acerola" d="M319 53.2h14.5V93h25.4v12.7h-40V53.2zM383.4 52.9h14l22.3 52.9h-15.6l-3.8-9.4H380l-3.8 9.4H361l22.4-52.9zM396.1 85l-5.8-14.8-5.9 14.8h11.7z"/>
  <g>
    <g fill="currentColor" class="carriere">
      <path d="M185.7 168.2c-1.3 0-2.5.2-3.6.6-1.1.4-2 1.1-2.8 1.9-.8.8-1.4 1.8-1.8 3a13.03 13.03 0 0 0-.1 8.2c.4 1.2 1 2.1 1.7 2.9.8.8 1.7 1.4 2.8 1.8 1.1.4 2.3.6 3.7.6 1 0 2-.1 3-.2 1-.2 2-.4 2.9-.7v4.1c-.9.3-1.9.5-2.9.6s-2.1.2-3.3.2c-2.2 0-4.2-.3-5.8-.9a10.86 10.86 0 0 1-6.7-6.8 17.85 17.85 0 0 1 .1-10.8c.6-1.7 1.5-3.2 2.6-4.4 1.1-1.3 2.6-2.2 4.3-2.9a15 15 0 0 1 5.8-1.1c1.1 0 2.2.1 3.1.2 1 .1 1.9.4 2.7.6v4.1c-1-.3-2-.6-2.9-.7s-1.9-.3-2.8-.3zM225.4 184.1h-9.8l-2.6 6.7h-5.1l10.4-26.1h4.4l10.4 26.1H228l-2.6-6.7zm-5-13.2c-.9 2.7-1.7 5-2.4 6.9l-.9 2.3h6.8l-.9-2.3c-.8-1.9-1.6-4.1-2.6-6.9zM270 172.5c0 1.8-.5 3.4-1.5 4.6s-2.6 2.2-4.7 2.8v.1l7.8 10.7h-5.7l-7.1-10.1h-3.3v10.1h-4.8v-26.1h7.9c1.3 0 2.5.1 3.7.2s2.1.4 2.9.7c1.5.6 2.7 1.5 3.6 2.6s1.2 2.7 1.2 4.4zm-12.2 4.2c1.1 0 2 0 2.8-.1s1.4-.2 1.9-.4c1-.4 1.6-.9 2-1.5s.6-1.4.6-2.2c0-.7-.1-1.3-.4-1.9s-.8-1-1.5-1.3c-.5-.2-1-.4-1.7-.5s-1.5-.1-2.6-.1h-3.4v8h2.3zM309.1 172.5c0 1.8-.5 3.4-1.5 4.6s-2.6 2.2-4.7 2.8v.1l7.8 10.7H305l-7.1-10.1h-3.3v10.1h-4.8v-26.1h7.9c1.3 0 2.5.1 3.7.2s2.1.4 2.9.7c1.5.6 2.7 1.5 3.6 2.6s1.2 2.7 1.2 4.4zm-12.2 4.2c1.1 0 2 0 2.8-.1s1.4-.2 1.9-.4c1-.4 1.6-.9 2-1.5s.6-1.4.6-2.2c0-.7-.1-1.3-.4-1.9s-.8-1-1.5-1.3c-.5-.2-1-.4-1.7-.5s-1.5-.1-2.6-.1h-3.4v8h2.3zM328.9 190.8v-26.1h4.8v26.1h-4.8zM358.7 186.8h12.9v4H354v-26.1h16.9v4h-12.1v6.8h10.4v4h-10.4v7.3zM410 172.5c0 1.8-.5 3.4-1.5 4.6s-2.6 2.2-4.7 2.8v.1l7.8 10.7h-5.7l-7.1-10.1h-3.3v10.1h-4.8v-26.1h7.9c1.3 0 2.5.1 3.7.2s2.1.4 2.9.7c1.5.6 2.7 1.5 3.6 2.6s1.2 2.7 1.2 4.4zm-12.2 4.2c1.1 0 2 0 2.8-.1s1.4-.2 1.9-.4c1-.4 1.6-.9 2-1.5s.6-1.4.6-2.2c0-.7-.1-1.3-.4-1.9s-.8-1-1.5-1.3c-.5-.2-1-.4-1.7-.5s-1.5-.1-2.6-.1h-3.4v8h2.3zM434.6 186.8h12.9v4h-17.6v-26.1h16.9v4h-12.1v6.8H445v4h-10.4v7.3z"/>
    </g>
  </g>
</svg>