<svg xmlns="http://www.w3.org/2000/svg" viewBox="0 0 422 168" class="logo-acerola">
  <path fill="currentColor" d="M89 159h-1v-35H1V1h422v123H152.7c-2.1 0-4.6-.1-6.2.9-19.2 11.3-38.4 22.7-57.5 34.1z"/>
  <g fill="currentColor" class="acerola">
    <path d="M41.7 34.9h14L78 87.8H62.5l-3.8-9.4H38.4l-3.7 9.4H19.4l22.3-52.9zM54.4 67l-5.8-14.8L42.7 67h11.7zM78.1 61.6v-.1c0-15.3 11.7-27.3 27.6-27.3 10.7 0 17.6 4.5 22.3 10.9l-11 8.4c-3-3.7-6.4-6.1-11.5-6.1-7.3 0-12.5 6.3-12.5 13.9v.1c0 7.9 5.2 14 12.5 14 5.5 0 8.7-2.5 11.8-6.4l10.9 7.8c-4.9 6.8-11.6 11.8-23.2 11.8-14.9.2-26.9-11.3-26.9-27zM134.6 35.2h42.2v12.3H149v8h25.2V67H149v8.3h28.2v12.4h-42.6V35.2zM184.7 35.2h24.8c8 0 13.6 2.1 17.1 5.6 3.1 3.1 4.7 7 4.7 12.2v.1c0 8.1-4.3 13.4-10.8 16.2L233 87.7h-16.7l-10.6-15.9h-6.4v15.9h-14.5V35.2zm24.2 25.2c4.9 0 7.8-2.4 7.8-6.2V54c0-4.2-3.1-6.3-7.9-6.3h-9.6v12.7h9.7zM301 35.2h14.5V75h25.4v12.7h-40V35.2zM365.4 34.9h14l22.3 52.9h-15.6l-3.8-9.4H362l-3.8 9.4H343l22.4-52.9zM378.1 67l-5.8-14.8-5.9 14.8h11.7z"/>
  </g>
  <path fill="currentColor" class="ball" d="M236.9 61.6v-.1c0-15.1 12.1-27.3 28.3-27.3s28.2 12.1 28.2 27.1v.1c0 15.1-12.1 27.3-28.3 27.3s-28.2-12-28.2-27.1z"/>
  <g fill="currentColor" class="carriere">
    <path d="M159.7 137.2c-1.3 0-2.5.2-3.6.6-1.1.4-2 1.1-2.8 1.9-.8.8-1.4 1.8-1.8 3a13.03 13.03 0 0 0-.1 8.2c.4 1.2 1 2.1 1.7 2.9.8.8 1.7 1.4 2.8 1.8 1.1.4 2.3.6 3.7.6 1 0 2-.1 3-.2 1-.2 2-.4 2.9-.7v4.1c-.9.3-1.9.5-2.9.6s-2.1.2-3.3.2c-2.2 0-4.2-.3-5.8-.9a10.86 10.86 0 0 1-6.7-6.8 17.85 17.85 0 0 1 .1-10.8c.6-1.7 1.5-3.2 2.6-4.4 1.1-1.3 2.6-2.2 4.3-2.9a15 15 0 0 1 5.8-1.1c1.1 0 2.2.1 3.1.2 1 .1 1.9.4 2.7.6v4.1c-1-.3-2-.6-2.9-.7s-1.9-.3-2.8-.3zM199.4 153.1h-9.8l-2.6 6.7h-5.1l10.4-26.1h4.4l10.4 26.1H202l-2.6-6.7zm-5-13.2c-.9 2.7-1.7 5-2.4 6.9l-.9 2.3h6.8l-.9-2.3c-.8-1.9-1.6-4.1-2.6-6.9zM244 141.5c0 1.8-.5 3.4-1.5 4.6s-2.6 2.2-4.7 2.8v.1l7.8 10.7h-5.7l-7.1-10.1h-3.3v10.1h-4.8v-26.1h7.9c1.3 0 2.5.1 3.7.2s2.1.4 2.9.7c1.5.6 2.7 1.5 3.6 2.6s1.2 2.7 1.2 4.4zm-12.2 4.2c1.1 0 2 0 2.8-.1s1.4-.2 1.9-.4c1-.4 1.6-.9 2-1.5s.6-1.4.6-2.2c0-.7-.1-1.3-.4-1.9s-.8-1-1.5-1.3c-.5-.2-1-.4-1.7-.5s-1.5-.1-2.6-.1h-3.4v8h2.3zM283.1 141.5c0 1.8-.5 3.4-1.5 4.6s-2.6 2.2-4.7 2.8v.1l7.8 10.7H279l-7.1-10.1h-3.3v10.1h-4.8v-26.1h7.9c1.3 0 2.5.1 3.7.2s2.1.4 2.9.7c1.5.6 2.7 1.5 3.6 2.6s1.2 2.7 1.2 4.4zm-12.2 4.2c1.1 0 2 0 2.8-.1s1.4-.2 1.9-.4c1-.4 1.6-.9 2-1.5s.6-1.4.6-2.2c0-.7-.1-1.3-.4-1.9s-.8-1-1.5-1.3c-.5-.2-1-.4-1.7-.5s-1.5-.1-2.6-.1h-3.4v8h2.3zM302.9 159.8v-26.1h4.8v26.1h-4.8zM332.7 155.8h12.9v4H328v-26.1h16.9v4h-12.1v6.8h10.4v4h-10.4v7.3zM384 141.5c0 1.8-.5 3.4-1.5 4.6s-2.6 2.2-4.7 2.8v.1l7.8 10.7h-5.7l-7.1-10.1h-3.3v10.1h-4.8v-26.1h7.9c1.3 0 2.5.1 3.7.2s2.1.4 2.9.7c1.5.6 2.7 1.5 3.6 2.6s1.2 2.7 1.2 4.4zm-12.2 4.2c1.1 0 2 0 2.8-.1s1.4-.2 1.9-.4c1-.4 1.6-.9 2-1.5s.6-1.4.6-2.2c0-.7-.1-1.3-.4-1.9s-.8-1-1.5-1.3c-.5-.2-1-.4-1.7-.5s-1.5-.1-2.6-.1h-3.4v8h2.3zM408.6 155.8h12.9v4h-17.6v-26.1h16.9v4h-12.1v6.8H419v4h-10.4v7.3z"/>
  </g>
</svg>