<svg xmlns="http://www.w3.org/2000/svg" viewBox="0 0 32 32" class="icon icon-management"><path fill="currentColor" d="M16 5c-3.854 0-7 3.146-7 7a7.003 7.003 0 0 0 3.09 5.799C8.515 19.325 6 22.876 6 27h2a7.98 7.98 0 0 1 5.428-7.572l2.322 2.322L14 27l2 2 2-2-1.75-5.25 2.322-2.322A7.98 7.98 0 0 1 24 27h2c0-4.124-2.515-7.675-6.09-9.201A7.003 7.003 0 0 0 23 12c0-3.854-3.146-7-7-7zm0 2c2.773 0 5 2.227 5 5s-2.227 5-5 5-5-2.227-5-5 2.227-5 5-5zm8 1.072v2.032c1.804.35 3 1.644 3 3.396s-1.196 3.046-3 3.396v2.198c2.796.493 5 2.994 5 5.906h2c0-3.021-1.78-5.711-4.324-7.068C28.114 16.956 29 15.383 29 13.5c0-2.871-2.052-5.028-5-5.428zM8 8.076C5.091 8.49 3 10.68 3 13.5c0 1.883.886 3.456 2.324 4.432C2.78 19.289 1 21.979 1 25h2c0-2.912 2.204-5.413 5-5.906v-2.198c-1.804-.35-3-1.644-3-3.396 0-1.721 1.217-3.03 3-3.39V8.075z"/></svg>
