<svg xmlns="http://www.w3.org/2000/svg" viewBox="0 0 32 32" class="icon icon-emploi"><path fill="currentColor" d="M13 3c-3.854 0-7 3.146-7 7a7.026 7.026 0 0 0 3.094 5.813C5.527 17.343 3 20.88 3 25h2c0-4.43 3.57-8 8-8 2.141 0 4.068.854 5.5 2.219a5.426 5.426 0 0 0 .469 5.375L15.28 28.28l1.438 1.438 3.687-3.688c.885.61 1.944.969 3.094.969 3.026 0 5.5-2.474 5.5-5.5S26.526 16 23.5 16a5.466 5.466 0 0 0-3.813 1.563 10.031 10.031 0 0 0-2.75-1.75A7.042 7.042 0 0 0 20 10c0-3.854-3.146-7-7-7zm0 2c2.773 0 5 2.227 5 5s-2.227 5-5 5-5-2.227-5-5 2.227-5 5-5zm10.5 13c1.945 0 3.5 1.555 3.5 3.5S25.445 25 23.5 25a3.485 3.485 0 0 1-3.5-3.5c0-1.945 1.555-3.5 3.5-3.5z"/></svg>
