<svg xmlns="http://www.w3.org/2000/svg" viewBox="0 0 32 32" class="icon icon-recrutement"><path fill="currentColor" d="M10 4v7.094c.328-.047.66-.094 1-.094.34 0 .672.047 1 .094V6h14v18h-6.969c.316.63.588 1.297.75 2H28V4H10zm4 4v2h2V8h-2zm4 0v2h2V8h-2zm4 0v2h2V8h-2zm-7.406 4c.517.311.986.696 1.406 1.125V12h-1.406zM18 12v2h2v-2h-2zm4 0v2h2v-2h-2zm-11 1c-2.75 0-5 2.25-5 5 0 1.516.707 2.862 1.781 3.781A7.008 7.008 0 0 0 4 28h2c0-2.773 2.227-5 5-5 2.774 0 5 2.226 5 5h2a7.008 7.008 0 0 0-3.781-6.219C15.293 20.862 16 19.516 16 18c0-2.75-2.25-5-5-5zm0 2c1.669 0 3 1.331 3 3s-1.331 3-3 3-3-1.331-3-3 1.331-3 3-3zm7 1v2h2v-2h-2zm4 0v2h2v-2h-2zm-4 4v2h2v-2h-2zm4 0v2h2v-2h-2z"/></svg>
